<svg width="34" height="33" viewBox="0 0 34 33" fill="none" xmlns="http://www.w3.org/2000/svg">
<g clip-path="url(#clip0_888_152)">
<path d="M16.709 13.4524V19.8199H25.5577C25.1692 21.8677 24.0031 23.6016 22.2543 24.7675L27.5905 28.9079C30.6995 26.0381 32.4932 21.823 32.4932 16.8157C32.4932 15.6498 32.3886 14.5287 32.1942 13.4526L16.709 13.4524Z" fill="#4285F4"/>
<path d="M7.49478 19.5714L6.29128 20.4927L2.03125 23.8109C4.73669 29.1769 10.2817 32.8839 16.709 32.8839C21.1482 32.8839 24.87 31.419 27.5904 28.908L22.2543 24.7676C20.7895 25.7541 18.9211 26.352 16.709 26.352C12.4341 26.352 8.80201 23.4672 7.5015 19.5809L7.49478 19.5714Z" fill="#34A853"/>
<path d="M2.03122 9.073C0.910242 11.2851 0.267578 13.7813 0.267578 16.4419C0.267578 19.1024 0.910242 21.5987 2.03122 23.8108C2.03122 23.8256 7.502 19.5658 7.502 19.5658C7.17317 18.5792 6.9788 17.533 6.9788 16.4417C6.9788 15.3504 7.17317 14.3042 7.502 13.3177L2.03122 9.073Z" fill="#FBBC05"/>
<path d="M16.7093 6.54688C19.1308 6.54688 21.2832 7.38391 23.0021 8.99823L27.7104 4.28991C24.8555 1.62935 21.1487 0 16.7093 0C10.282 0 4.73669 3.69196 2.03125 9.07298L7.50186 13.318C8.80219 9.43168 12.4344 6.54688 16.7093 6.54688Z" fill="#EA4335"/>
</g>
<defs>
<clipPath id="clip0_888_152">
<rect width="32.8839" height="32.8839" fill="white" transform="translate(0.267578)"/>
</clipPath>
</defs>
</svg>
