<svg width="41" height="40" viewBox="0 0 41 40" fill="none" xmlns="http://www.w3.org/2000/svg">
<circle cx="20.5" cy="20" r="20" fill="black"/>
<path d="M25.5 10H15.5C12.7386 10 10.5 12.2386 10.5 15V25C10.5 27.7614 12.7386 30 15.5 30H25.5C28.2614 30 30.5 27.7614 30.5 25V15C30.5 12.2386 28.2614 10 25.5 10Z" fill="white" stroke="white" stroke-width="2" stroke-linecap="round" stroke-linejoin="round"/>
<path d="M24.4997 19.3701C24.6231 20.2023 24.481 21.0523 24.0935 21.7991C23.706 22.5459 23.0929 23.1515 22.3413 23.5297C21.5898 23.908 20.7382 24.0397 19.9075 23.906C19.0768 23.7723 18.3095 23.3801 17.7145 22.7852C17.1196 22.1903 16.7274 21.4229 16.5938 20.5923C16.4601 19.7616 16.5918 18.91 16.97 18.1584C17.3483 17.4069 17.9539 16.7938 18.7007 16.4063C19.4475 16.0188 20.2975 15.8766 21.1297 16.0001C21.9786 16.1259 22.7646 16.5215 23.3714 17.1284C23.9782 17.7352 24.3738 18.5211 24.4997 19.3701Z" fill="white" stroke="black" stroke-width="2" stroke-linecap="round" stroke-linejoin="round"/>
<path d="M26 14.5H26.01" stroke="black" stroke-width="2" stroke-linecap="round" stroke-linejoin="round"/>
</svg>
