<svg width="19" height="18" viewBox="0 0 19 18" fill="none" xmlns="http://www.w3.org/2000/svg">
<path d="M18.6127 13.4765V16.1862C18.6137 16.4377 18.5621 16.6867 18.4611 16.9172C18.3602 17.1477 18.2121 17.3546 18.0263 17.5247C17.8406 17.6947 17.6213 17.8242 17.3826 17.9048C17.1438 17.9854 16.8908 18.0153 16.6397 17.9927C13.8548 17.6907 11.1797 16.7409 8.82929 15.2197C6.64257 13.8329 4.78862 11.9827 3.39908 9.80026C1.86956 7.44389 0.917699 4.76107 0.620627 1.96915C0.598011 1.71938 0.627754 1.46764 0.707963 1.22996C0.788173 0.992289 0.91709 0.773885 1.08651 0.588659C1.25593 0.403433 1.46213 0.255443 1.692 0.15411C1.92187 0.0527778 2.17036 0.00032375 2.42165 8.75714e-05H5.13675C5.57597 -0.00422671 6.00178 0.151 6.3348 0.436835C6.66783 0.722669 6.88535 1.11961 6.94682 1.55366C7.06142 2.42084 7.27395 3.27229 7.58035 4.09177C7.70211 4.41507 7.72847 4.76642 7.65628 5.1042C7.5841 5.44198 7.41641 5.75203 7.17308 5.99761L6.02369 7.14473C7.31205 9.40604 9.1881 11.2784 11.4539 12.5642L12.6033 11.4171C12.8494 11.1742 13.16 11.0069 13.4985 10.9348C13.8369 10.8628 14.189 10.8891 14.5129 11.0106C15.334 11.3164 16.1872 11.5285 17.0561 11.6429C17.4957 11.7048 17.8972 11.9258 18.1842 12.2639C18.4712 12.6019 18.6237 13.0335 18.6127 13.4765Z" fill="black"/>
</svg>
