<svg width="41" height="40" viewBox="0 0 41 40" fill="none" xmlns="http://www.w3.org/2000/svg">
<circle cx="20.5" cy="20" r="20" fill="black"/>
<path d="M32.5212 10.0112C31.4538 10.7641 30.272 11.3399 29.0213 11.7165C28.35 10.9447 27.4579 10.3976 26.4656 10.1493C25.4733 9.90104 24.4286 9.9635 23.4729 10.3283C22.5173 10.693 21.6967 11.3425 21.1221 12.1888C20.5476 13.0351 20.2469 14.0375 20.2606 15.0603V16.1749C18.3018 16.2257 16.3609 15.7913 14.6107 14.9104C12.8605 14.0294 11.3553 12.7293 10.2292 11.1258C10.2292 11.1258 5.7708 21.1572 15.8022 25.6156C13.5067 27.1738 10.7722 27.9551 8 27.8448C18.0314 33.4178 30.292 27.8448 30.292 15.0269C30.2909 14.7164 30.2611 14.4067 30.2028 14.1018C31.3404 12.9799 32.1431 11.5635 32.5212 10.0112Z" fill="white"/>
</svg>
